<svg width="40" height="40" viewBox="0 0 40 40" fill="none" xmlns="http://www.w3.org/2000/svg">
<path d="M36.7 39.2083L31.1906 33.7437C30.6531 34.0722 30.0783 34.3186 29.4661 34.4828C28.854 34.647 28.2194 34.7292 27.5625 34.7292C25.5917 34.7292 23.9045 34.0274 22.501 32.624C21.0976 31.2205 20.3958 29.5333 20.3958 27.5625C20.3958 25.5917 21.0976 23.9045 22.501 22.501C23.9045 21.0976 25.5917 20.3958 27.5625 20.3958C29.5333 20.3958 31.2205 21.0976 32.624 22.501C34.0274 23.9045 34.7292 25.5917 34.7292 27.5625C34.7292 28.2493 34.6396 28.8988 34.4604 29.5109C34.2812 30.1231 34.0274 30.6979 33.699 31.2354L39.2083 36.7L36.7 39.2083ZM7.85417 34.7292C5.88333 34.7292 4.19618 34.0274 2.79271 32.624C1.38924 31.2205 0.6875 29.5333 0.6875 27.5625C0.6875 25.5917 1.38924 23.9045 2.79271 22.501C4.19618 21.0976 5.88333 20.3958 7.85417 20.3958C9.825 20.3958 11.5122 21.0976 12.9156 22.501C14.3191 23.9045 15.0208 25.5917 15.0208 27.5625C15.0208 29.5333 14.3191 31.2205 12.9156 32.624C11.5122 34.0274 9.825 34.7292 7.85417 34.7292ZM7.85417 31.1458C8.83958 31.1458 9.68316 30.795 10.3849 30.0932C11.0866 29.3915 11.4375 28.5479 11.4375 27.5625C11.4375 26.5771 11.0866 25.7335 10.3849 25.0318C9.68316 24.33 8.83958 23.9792 7.85417 23.9792C6.86875 23.9792 6.02517 24.33 5.32344 25.0318C4.6217 25.7335 4.27083 26.5771 4.27083 27.5625C4.27083 28.5479 4.6217 29.3915 5.32344 30.0932C6.02517 30.795 6.86875 31.1458 7.85417 31.1458ZM27.5625 31.1458C28.5479 31.1458 29.3915 30.795 30.0932 30.0932C30.795 29.3915 31.1458 28.5479 31.1458 27.5625C31.1458 26.5771 30.795 25.7335 30.0932 25.0318C29.3915 24.33 28.5479 23.9792 27.5625 23.9792C26.5771 23.9792 25.7335 24.33 25.0318 25.0318C24.33 25.7335 23.9792 26.5771 23.9792 27.5625C23.9792 28.5479 24.33 29.3915 25.0318 30.0932C25.7335 30.795 26.5771 31.1458 27.5625 31.1458ZM7.85417 15.0208C5.88333 15.0208 4.19618 14.3191 2.79271 12.9156C1.38924 11.5122 0.6875 9.825 0.6875 7.85417C0.6875 5.88333 1.38924 4.19618 2.79271 2.79271C4.19618 1.38924 5.88333 0.6875 7.85417 0.6875C9.825 0.6875 11.5122 1.38924 12.9156 2.79271C14.3191 4.19618 15.0208 5.88333 15.0208 7.85417C15.0208 9.825 14.3191 11.5122 12.9156 12.9156C11.5122 14.3191 9.825 15.0208 7.85417 15.0208ZM27.5625 15.0208C25.5917 15.0208 23.9045 14.3191 22.501 12.9156C21.0976 11.5122 20.3958 9.825 20.3958 7.85417C20.3958 5.88333 21.0976 4.19618 22.501 2.79271C23.9045 1.38924 25.5917 0.6875 27.5625 0.6875C29.5333 0.6875 31.2205 1.38924 32.624 2.79271C34.0274 4.19618 34.7292 5.88333 34.7292 7.85417C34.7292 9.825 34.0274 11.5122 32.624 12.9156C31.2205 14.3191 29.5333 15.0208 27.5625 15.0208ZM7.85417 11.4375C8.83958 11.4375 9.68316 11.0866 10.3849 10.3849C11.0866 9.68316 11.4375 8.83958 11.4375 7.85417C11.4375 6.86875 11.0866 6.02517 10.3849 5.32344C9.68316 4.6217 8.83958 4.27083 7.85417 4.27083C6.86875 4.27083 6.02517 4.6217 5.32344 5.32344C4.6217 6.02517 4.27083 6.86875 4.27083 7.85417C4.27083 8.83958 4.6217 9.68316 5.32344 10.3849C6.02517 11.0866 6.86875 11.4375 7.85417 11.4375ZM27.5625 11.4375C28.5479 11.4375 29.3915 11.0866 30.0932 10.3849C30.795 9.68316 31.1458 8.83958 31.1458 7.85417C31.1458 6.86875 30.795 6.02517 30.0932 5.32344C29.3915 4.6217 28.5479 4.27083 27.5625 4.27083C26.5771 4.27083 25.7335 4.6217 25.0318 5.32344C24.33 6.02517 23.9792 6.86875 23.9792 7.85417C23.9792 8.83958 24.33 9.68316 25.0318 10.3849C25.7335 11.0866 26.5771 11.4375 27.5625 11.4375Z" fill="black"/>
</svg>
