<svg width="43" height="40" viewBox="0 0 43 40" fill="none" xmlns="http://www.w3.org/2000/svg">
<g filter="url(#filter0_d_66_142)">
<path d="M14.0646 34.849C10.9591 33.4156 8.4358 31.2507 6.49483 28.3542C4.55386 25.4577 3.58337 22.1879 3.58337 18.5448C3.58337 17.7684 3.6207 17.007 3.69535 16.2604C3.77001 15.5139 3.89692 14.7823 4.07608 14.0656L2.01567 15.275L0.223999 12.1844L8.77921 7.2573L13.7063 15.7677L10.5709 17.5594L8.15212 13.349C7.82365 14.1552 7.5773 14.9913 7.41306 15.8573C7.24883 16.7233 7.16671 17.6191 7.16671 18.5448C7.16671 21.4413 7.95803 24.0766 9.54067 26.4505C11.1233 28.8245 13.2285 30.5788 15.8563 31.7136L14.0646 34.849ZM27.7709 13.125V9.54168H32.6532C31.2796 7.83959 29.6223 6.51824 27.6813 5.57761C25.7403 4.63699 23.6799 4.16668 21.5 4.16668C19.8577 4.16668 18.3049 4.4205 16.8417 4.92814C15.3785 5.43577 14.0348 6.15244 12.8105 7.07814L11.0188 3.94272C12.5118 2.89758 14.1393 2.0764 15.9011 1.47918C17.6629 0.881955 19.5292 0.583344 21.5 0.583344C23.8591 0.583344 26.1136 1.02379 28.2636 1.9047C30.4136 2.7856 32.3396 4.06216 34.0417 5.73439V3.27084H37.625V13.125H27.7709ZM26.6063 40L18.0511 35.0729L22.9782 26.5625L26.0688 28.3542L23.5157 32.7438C27.0393 32.2361 29.9731 30.6386 32.3172 27.9511C34.6613 25.2636 35.8334 22.1132 35.8334 18.5C35.8334 18.1715 35.8259 17.8655 35.811 17.5818C35.796 17.2981 35.7587 17.007 35.699 16.7083H39.3271C39.357 17.007 39.3794 17.2981 39.3943 17.5818C39.4092 17.8655 39.4167 18.1715 39.4167 18.5C39.4167 22.5313 38.2148 26.137 35.811 29.3172C33.4072 32.4974 30.2792 34.6399 26.4271 35.7448L28.398 36.9094L26.6063 40Z" fill="black"/>
</g>
<defs>
<filter id="filter0_d_66_142" x="-3.776" y="0.583344" width="47.1927" height="47.4167" filterUnits="userSpaceOnUse" color-interpolation-filters="sRGB">
<feFlood flood-opacity="0" result="BackgroundImageFix"/>
<feColorMatrix in="SourceAlpha" type="matrix" values="0 0 0 0 0 0 0 0 0 0 0 0 0 0 0 0 0 0 127 0" result="hardAlpha"/>
<feOffset dy="4"/>
<feGaussianBlur stdDeviation="2"/>
<feComposite in2="hardAlpha" operator="out"/>
<feColorMatrix type="matrix" values="0 0 0 0 0 0 0 0 0 0 0 0 0 0 0 0 0 0 0.25 0"/>
<feBlend mode="normal" in2="BackgroundImageFix" result="effect1_dropShadow_66_142"/>
<feBlend mode="normal" in="SourceGraphic" in2="effect1_dropShadow_66_142" result="shape"/>
</filter>
</defs>
</svg>
