<svg width="39" height="39" viewBox="0 0 39 39" fill="none" xmlns="http://www.w3.org/2000/svg">
<path d="M15.4833 13.4833L19.4698 6.89897L16.827 2.50939C16.4687 1.91216 15.9536 1.61355 15.2817 1.61355C14.6099 1.61355 14.0948 1.91216 13.7364 2.50939L9.34684 9.81043L15.4833 13.4833ZM32.8177 25.6667L28.8312 19.0375L35.0573 15.4542L37.9239 20.2469C38.2524 20.7545 38.4316 21.3219 38.4614 21.949C38.4913 22.5761 38.3569 23.1583 38.0583 23.6958C37.7597 24.2931 37.3192 24.7708 36.7369 25.1292C36.1547 25.4875 35.5201 25.6667 34.8333 25.6667H32.8177ZM27.6666 38.2083L20.5 31.0417L27.6666 23.875V27.4583H36.177L33.5791 32.6542C33.2507 33.2514 32.8027 33.7292 32.2354 34.0875C31.668 34.4458 31.0409 34.625 30.3541 34.625H27.6666V38.2083ZM10.3323 34.625C9.73503 34.625 9.19006 34.4682 8.69736 34.1547C8.20465 33.8412 7.83885 33.4306 7.59996 32.9229C7.36107 32.4451 7.24909 31.945 7.26402 31.4224C7.27895 30.8998 7.42079 30.4146 7.68954 29.9667L9.21246 27.4583H16.9166V34.625H10.3323ZM5.89788 29.5188L2.98642 23.6958C2.71767 23.1583 2.59076 22.5835 2.60569 21.9714C2.62062 21.3592 2.79232 20.7844 3.12079 20.2469L3.83746 19.0375L0.791626 17.2011L10.601 14.7375L13.0645 24.5917L9.97392 22.7104L5.89788 29.5188ZM30.0854 14.2L20.276 11.7365L23.3666 9.90001L17.7677 0.583344H24.0833C24.7104 0.583344 25.3001 0.740114 25.8526 1.05366C26.405 1.3672 26.8454 1.79272 27.1739 2.33022L29.5031 6.22709L32.5489 4.34584L30.0854 14.2Z" fill="black"/>
</svg>
